<mxfile host="Electron" agent="Mozilla/5.0 (Windows NT 10.0; Win64; x64) AppleWebKit/537.36 (KHTML, like Gecko) draw.io/28.2.5 Chrome/138.0.7204.251 Electron/37.6.1 Safari/537.36" version="28.2.5">
  <diagram name="Página-1" id="lgsfylnA9JrC5za6dz95">
    <mxGraphModel dx="856" dy="1164" grid="1" gridSize="10" guides="1" tooltips="1" connect="1" arrows="1" fold="1" page="1" pageScale="1" pageWidth="827" pageHeight="1169" math="0" shadow="0">
      <root>
        <mxCell id="0" />
        <mxCell id="1" parent="0" />
        <mxCell id="7GB0SN49nU3vowdlAvA3-3" style="edgeStyle=orthogonalEdgeStyle;rounded=0;orthogonalLoop=1;jettySize=auto;html=1;entryX=0.5;entryY=0;entryDx=0;entryDy=0;" parent="1" source="7GB0SN49nU3vowdlAvA3-1" target="7GB0SN49nU3vowdlAvA3-2" edge="1">
          <mxGeometry relative="1" as="geometry" />
        </mxCell>
        <mxCell id="7GB0SN49nU3vowdlAvA3-1" value="Início" style="ellipse;whiteSpace=wrap;html=1;" parent="1" vertex="1">
          <mxGeometry x="354" y="40" width="120" height="80" as="geometry" />
        </mxCell>
        <mxCell id="7GB0SN49nU3vowdlAvA3-6" style="edgeStyle=orthogonalEdgeStyle;rounded=0;orthogonalLoop=1;jettySize=auto;html=1;entryX=0.5;entryY=0;entryDx=0;entryDy=0;" parent="1" source="7GB0SN49nU3vowdlAvA3-2" target="7GB0SN49nU3vowdlAvA3-4" edge="1">
          <mxGeometry relative="1" as="geometry" />
        </mxCell>
        <mxCell id="7GB0SN49nU3vowdlAvA3-2" value="&lt;div&gt;Definir variável per = 9&lt;/div&gt;" style="rounded=0;whiteSpace=wrap;html=1;" parent="1" vertex="1">
          <mxGeometry x="354" y="160" width="120" height="60" as="geometry" />
        </mxCell>
        <mxCell id="7GB0SN49nU3vowdlAvA3-7" style="edgeStyle=orthogonalEdgeStyle;rounded=0;orthogonalLoop=1;jettySize=auto;html=1;entryX=0.5;entryY=0;entryDx=0;entryDy=0;" parent="1" source="7GB0SN49nU3vowdlAvA3-4" target="7GB0SN49nU3vowdlAvA3-5" edge="1">
          <mxGeometry relative="1" as="geometry" />
        </mxCell>
        <mxCell id="7GB0SN49nU3vowdlAvA3-4" value="&lt;div&gt;Definir variável per_2 = 8&lt;/div&gt;" style="rounded=0;whiteSpace=wrap;html=1;" parent="1" vertex="1">
          <mxGeometry x="354" y="260" width="120" height="60" as="geometry" />
        </mxCell>
        <mxCell id="7a_tcJB_ISBaQT_1QwqY-2" style="edgeStyle=orthogonalEdgeStyle;rounded=0;orthogonalLoop=1;jettySize=auto;html=1;entryX=0.5;entryY=0;entryDx=0;entryDy=0;" edge="1" parent="1" source="7GB0SN49nU3vowdlAvA3-5" target="7a_tcJB_ISBaQT_1QwqY-1">
          <mxGeometry relative="1" as="geometry" />
        </mxCell>
        <mxCell id="7GB0SN49nU3vowdlAvA3-5" value="&lt;div&gt;Configurar per como saída&lt;/div&gt;" style="rounded=0;whiteSpace=wrap;html=1;" parent="1" vertex="1">
          <mxGeometry x="354" y="360" width="120" height="60" as="geometry" />
        </mxCell>
        <mxCell id="7a_tcJB_ISBaQT_1QwqY-4" style="edgeStyle=orthogonalEdgeStyle;rounded=0;orthogonalLoop=1;jettySize=auto;html=1;entryX=0.5;entryY=0;entryDx=0;entryDy=0;" edge="1" parent="1" source="7a_tcJB_ISBaQT_1QwqY-1" target="7a_tcJB_ISBaQT_1QwqY-5">
          <mxGeometry relative="1" as="geometry">
            <mxPoint x="414" y="560" as="targetPoint" />
          </mxGeometry>
        </mxCell>
        <mxCell id="7a_tcJB_ISBaQT_1QwqY-1" value="&lt;div&gt;Configurar per_2 como saída&lt;/div&gt;" style="rounded=0;whiteSpace=wrap;html=1;" vertex="1" parent="1">
          <mxGeometry x="354" y="460" width="120" height="60" as="geometry" />
        </mxCell>
        <mxCell id="7a_tcJB_ISBaQT_1QwqY-13" style="edgeStyle=orthogonalEdgeStyle;rounded=0;orthogonalLoop=1;jettySize=auto;html=1;entryX=0.5;entryY=0;entryDx=0;entryDy=0;" edge="1" parent="1" source="7a_tcJB_ISBaQT_1QwqY-5" target="7a_tcJB_ISBaQT_1QwqY-7">
          <mxGeometry relative="1" as="geometry" />
        </mxCell>
        <mxCell id="7a_tcJB_ISBaQT_1QwqY-5" value="Repetir&lt;div&gt;sempre&lt;/div&gt;" style="rhombus;whiteSpace=wrap;html=1;" vertex="1" parent="1">
          <mxGeometry x="354" y="560" width="120" height="80" as="geometry" />
        </mxCell>
        <mxCell id="7a_tcJB_ISBaQT_1QwqY-14" style="edgeStyle=orthogonalEdgeStyle;rounded=0;orthogonalLoop=1;jettySize=auto;html=1;entryX=0.5;entryY=0;entryDx=0;entryDy=0;" edge="1" parent="1" source="7a_tcJB_ISBaQT_1QwqY-7" target="7a_tcJB_ISBaQT_1QwqY-8">
          <mxGeometry relative="1" as="geometry" />
        </mxCell>
        <mxCell id="7a_tcJB_ISBaQT_1QwqY-7" value="&lt;div&gt;Ligar LED 1 pelo pino 9 como alto&lt;/div&gt;" style="rounded=0;whiteSpace=wrap;html=1;" vertex="1" parent="1">
          <mxGeometry x="354" y="680" width="120" height="60" as="geometry" />
        </mxCell>
        <mxCell id="7a_tcJB_ISBaQT_1QwqY-16" style="edgeStyle=orthogonalEdgeStyle;rounded=0;orthogonalLoop=1;jettySize=auto;html=1;entryX=0.5;entryY=0;entryDx=0;entryDy=0;" edge="1" parent="1" source="7a_tcJB_ISBaQT_1QwqY-8" target="7a_tcJB_ISBaQT_1QwqY-9">
          <mxGeometry relative="1" as="geometry" />
        </mxCell>
        <mxCell id="7a_tcJB_ISBaQT_1QwqY-8" value="Esperar 5000 ms" style="rounded=0;whiteSpace=wrap;html=1;" vertex="1" parent="1">
          <mxGeometry x="354" y="780" width="120" height="60" as="geometry" />
        </mxCell>
        <mxCell id="7a_tcJB_ISBaQT_1QwqY-17" style="edgeStyle=orthogonalEdgeStyle;rounded=0;orthogonalLoop=1;jettySize=auto;html=1;entryX=0.5;entryY=0;entryDx=0;entryDy=0;" edge="1" parent="1" source="7a_tcJB_ISBaQT_1QwqY-9" target="7a_tcJB_ISBaQT_1QwqY-10">
          <mxGeometry relative="1" as="geometry" />
        </mxCell>
        <mxCell id="7a_tcJB_ISBaQT_1QwqY-9" value="&lt;div&gt;Desligar LED 1 pelo pino 9 como baixo&lt;/div&gt;" style="rounded=0;whiteSpace=wrap;html=1;" vertex="1" parent="1">
          <mxGeometry x="354" y="880" width="120" height="60" as="geometry" />
        </mxCell>
        <mxCell id="7a_tcJB_ISBaQT_1QwqY-18" style="edgeStyle=orthogonalEdgeStyle;rounded=0;orthogonalLoop=1;jettySize=auto;html=1;entryX=0.5;entryY=0;entryDx=0;entryDy=0;" edge="1" parent="1" source="7a_tcJB_ISBaQT_1QwqY-10" target="7a_tcJB_ISBaQT_1QwqY-11">
          <mxGeometry relative="1" as="geometry" />
        </mxCell>
        <mxCell id="7a_tcJB_ISBaQT_1QwqY-10" value="Ligar LED 2 pelo pino 8 como alto" style="rounded=0;whiteSpace=wrap;html=1;" vertex="1" parent="1">
          <mxGeometry x="354" y="980" width="120" height="60" as="geometry" />
        </mxCell>
        <mxCell id="7a_tcJB_ISBaQT_1QwqY-19" style="edgeStyle=orthogonalEdgeStyle;rounded=0;orthogonalLoop=1;jettySize=auto;html=1;entryX=0.5;entryY=0;entryDx=0;entryDy=0;" edge="1" parent="1" source="7a_tcJB_ISBaQT_1QwqY-11" target="7a_tcJB_ISBaQT_1QwqY-12">
          <mxGeometry relative="1" as="geometry" />
        </mxCell>
        <mxCell id="7a_tcJB_ISBaQT_1QwqY-11" value="Esperar 5000 ms" style="rounded=0;whiteSpace=wrap;html=1;" vertex="1" parent="1">
          <mxGeometry x="354" y="1080" width="120" height="60" as="geometry" />
        </mxCell>
        <mxCell id="7a_tcJB_ISBaQT_1QwqY-22" style="edgeStyle=orthogonalEdgeStyle;rounded=0;orthogonalLoop=1;jettySize=auto;html=1;entryX=0.5;entryY=0;entryDx=0;entryDy=0;" edge="1" parent="1" source="7a_tcJB_ISBaQT_1QwqY-12" target="7a_tcJB_ISBaQT_1QwqY-21">
          <mxGeometry relative="1" as="geometry" />
        </mxCell>
        <mxCell id="7a_tcJB_ISBaQT_1QwqY-12" value="Desligar LED 2 pelo pino 8 como baixo" style="rounded=0;whiteSpace=wrap;html=1;" vertex="1" parent="1">
          <mxGeometry x="354" y="1180" width="120" height="60" as="geometry" />
        </mxCell>
        <mxCell id="7a_tcJB_ISBaQT_1QwqY-23" style="edgeStyle=orthogonalEdgeStyle;rounded=0;orthogonalLoop=1;jettySize=auto;html=1;" edge="1" parent="1">
          <mxGeometry relative="1" as="geometry">
            <mxPoint x="353.8965517241379" y="600" as="targetPoint" />
            <mxPoint x="414" y="1260" as="sourcePoint" />
            <Array as="points">
              <mxPoint x="240" y="1260" />
              <mxPoint x="240" y="600" />
            </Array>
          </mxGeometry>
        </mxCell>
        <mxCell id="7a_tcJB_ISBaQT_1QwqY-21" value="Fim" style="ellipse;whiteSpace=wrap;html=1;" vertex="1" parent="1">
          <mxGeometry x="354" y="1280" width="120" height="80" as="geometry" />
        </mxCell>
      </root>
    </mxGraphModel>
  </diagram>
</mxfile>
